
<svg width="830" height="580" xmlns="http://www.w3.org/2000/svg"
    xmlns:xlink="http://www.w3.org/1999/xlink" style="background-color:white"> 
<rect x="0px" y="0px" width="830px" height="580px" style="fill:white"> </rect>
<rect x="650px" y="400px" width="140px" height="140px" style="stroke:#eee;fill:white"></rect>

<g class="legend" transform="translate(670,420)"><rect x="0px" y="0px" width="40px" height="20px" style="fill: rgb(252, 174, 145);"></rect><text x="50px" y="15px" style="stroke: black; font-size: 16px;">0 - 10%</text></g><g class="legend" transform="translate(670,420)"><rect x="0px" y="30px" width="40px" height="20px" style="fill: rgb(251, 106, 74);"></rect><text x="50px" y="45px" style="stroke: black; font-size: 16px;">10 - 30%</text></g><g class="legend" transform="translate(670,420)"><rect x="0px" y="60px" width="40px" height="20px" style="fill: rgb(222, 45, 38);"></rect><text x="50px" y="75px" style="stroke: black; font-size: 16px;">30 - 50%</text></g><g class="legend" transform="translate(670,420)"><rect x="0px" y="90px" width="40px" height="20px" style="fill: rgb(165, 15, 21);"></rect><text x="50px" y="105px" style="stroke: black; font-size: 16px;">50% - 100%</text></g><g transform="translate(15,15)" class="prov"><path transform="translate(707.5427548918864,172)" d="M -37.239092362730865,-21.5L0,-43L37.239092362730865,-21.5L37.239092362730865,21.5L0,43L-37.239092362730865,21.5L-37.239092362730865,-21.5Z" style="stroke: rgb(255, 255, 255); fill: rgb(238, 238, 238);"></path><path class="trade" transform="translate(707.5427548918864,172)" d="M -11.916509556073876,-6.88L0,-13.76L11.916509556073876,-6.88L11.916509556073876,6.88L0,13.76L-11.916509556073876,6.88L-11.916509556073876,-6.88Z" style="fill: rgb(222, 45, 38);"></path><text transform="translate(707.5427548918864,172)" x="0px" y="-2em" dy="0.35em" style="text-anchor: middle; font-size: 12px; stroke: black;">京</text></g><g transform="translate(15,15)" class="prov"><path transform="translate(670.3036625291555,236.5)" d="M -37.239092362730865,-21.5L0,-43L37.239092362730865,-21.5L37.239092362730865,21.5L0,43L-37.239092362730865,21.5L-37.239092362730865,-21.5Z" style="stroke: rgb(255, 255, 255); fill: rgb(238, 238, 238);"></path><path class="trade" transform="translate(670.3036625291555,236.5)" d="M -14.895636945092345,-8.6L0,-17.2L14.895636945092345,-8.6L14.895636945092345,8.6L0,17.2L-14.895636945092345,8.6L-14.895636945092345,-8.6Z" style="fill: rgb(222, 45, 38);"></path><text transform="translate(670.3036625291555,236.5)" x="0px" y="-2em" dy="0.35em" style="text-anchor: middle; font-size: 12px; stroke: black;">津</text></g><g transform="translate(15,15)" class="prov"><path transform="translate(446.86910835277035,236.5)" d="M -37.239092362730865,-21.5L0,-43L37.239092362730865,-21.5L37.239092362730865,21.5L0,43L-37.239092362730865,21.5L-37.239092362730865,-21.5Z" style="stroke: rgb(255, 255, 255); fill: rgb(238, 238, 238);"></path><path class="trade" transform="translate(446.86910835277035,236.5)" d="M -5.958254778036938,-3.44L0,-6.88L5.958254778036938,-3.44L5.958254778036938,3.44L0,6.88L-5.958254778036938,3.44L-5.958254778036938,-3.44Z" style="fill: rgb(251, 106, 74);"></path><text transform="translate(446.86910835277035,236.5)" x="0px" y="-2em" dy="0.35em" style="text-anchor: middle; font-size: 12px; stroke: black;">冀</text></g><g transform="translate(15,15)" class="prov"><path transform="translate(372.39092362730867,236.5)" d="M -37.239092362730865,-21.5L0,-43L37.239092362730865,-21.5L37.239092362730865,21.5L0,43L-37.239092362730865,21.5L-37.239092362730865,-21.5Z" style="stroke: rgb(255, 255, 255); fill: rgb(238, 238, 238);"></path><path class="trade" transform="translate(372.39092362730867,236.5)" d="M -3.7239092362730863,-2.15L0,-4.3L3.7239092362730863,-2.15L3.7239092362730863,2.15L0,4.3L-3.7239092362730863,2.15L-3.7239092362730863,-2.15Z" style="fill: rgb(251, 106, 74);"></path><text transform="translate(372.39092362730867,236.5)" x="0px" y="-2em" dy="0.35em" style="text-anchor: middle; font-size: 12px; stroke: black;">晋</text></g><g transform="translate(15,15)" class="prov"><path transform="translate(409.6300159900395,172)" d="M -37.239092362730865,-21.5L0,-43L37.239092362730865,-21.5L37.239092362730865,21.5L0,43L-37.239092362730865,21.5L-37.239092362730865,-21.5Z" style="stroke: rgb(255, 255, 255); fill: rgb(238, 238, 238);"></path><path class="trade" transform="translate(409.6300159900395,172)" d="M -1.8619546181365432,-1.075L0,-2.15L1.8619546181365432,-1.075L1.8619546181365432,1.075L0,2.15L-1.8619546181365432,1.075L-1.8619546181365432,-1.075Z" style="fill: rgb(252, 174, 145);"></path><text transform="translate(409.6300159900395,172)" x="0px" y="-2em" dy="0.35em" style="text-anchor: middle; font-size: 12px; stroke: black;">蒙</text></g><g transform="translate(15,15)" class="prov"><path transform="translate(484.1082007155012,172)" d="M -37.239092362730865,-21.5L0,-43L37.239092362730865,-21.5L37.239092362730865,21.5L0,43L-37.239092362730865,21.5L-37.239092362730865,-21.5Z" style="stroke: rgb(255, 255, 255); fill: rgb(238, 238, 238);"></path><path class="trade" transform="translate(484.1082007155012,172)" d="M -10.799336785191949,-6.234999999999999L0,-12.469999999999999L10.799336785191949,-6.234999999999999L10.799336785191949,6.234999999999999L0,12.469999999999999L-10.799336785191949,6.234999999999999L-10.799336785191949,-6.234999999999999Z" style="fill: rgb(251, 106, 74);"></path><text transform="translate(484.1082007155012,172)" x="0px" y="-2em" dy="0.35em" style="text-anchor: middle; font-size: 12px; stroke: black;">辽</text></g><g transform="translate(15,15)" class="prov"><path transform="translate(521.3472930782322,107.5)" d="M -37.239092362730865,-21.5L0,-43L37.239092362730865,-21.5L37.239092362730865,21.5L0,43L-37.239092362730865,21.5L-37.239092362730865,-21.5Z" style="stroke: rgb(255, 255, 255); fill: rgb(238, 238, 238);"></path><path class="trade" transform="translate(521.3472930782322,107.5)" d="M -3.3515183126457777,-1.9349999999999998L0,-3.8699999999999997L3.3515183126457777,-1.9349999999999998L3.3515183126457777,1.9349999999999998L0,3.8699999999999997L-3.3515183126457777,1.9349999999999998L-3.3515183126457777,-1.9349999999999998Z" style="fill: rgb(252, 174, 145);"></path><text transform="translate(521.3472930782322,107.5)" x="0px" y="-2em" dy="0.35em" style="text-anchor: middle; font-size: 12px; stroke: black;">吉</text></g><g transform="translate(15,15)" class="prov"><path transform="translate(558.586385440963,43)" d="M -37.239092362730865,-21.5L0,-43L37.239092362730865,-21.5L37.239092362730865,21.5L0,43L-37.239092362730865,21.5L-37.239092362730865,-21.5Z" style="stroke: rgb(255, 255, 255); fill: rgb(238, 238, 238);"></path><path class="trade" transform="translate(558.586385440963,43)" d="M -2.234345541763852,-1.29L0,-2.58L2.234345541763852,-1.29L2.234345541763852,1.29L0,2.58L-2.234345541763852,1.29L-2.234345541763852,-1.29Z" style="fill: rgb(252, 174, 145);"></path><text transform="translate(558.586385440963,43)" x="0px" y="-2em" dy="0.35em" style="text-anchor: middle; font-size: 12px; stroke: black;">黑</text></g><g transform="translate(15,15)" class="prov"><path transform="translate(744.7818472546173,236.5)" d="M -37.239092362730865,-21.5L0,-43L37.239092362730865,-21.5L37.239092362730865,21.5L0,43L-37.239092362730865,21.5L-37.239092362730865,-21.5Z" style="stroke: rgb(255, 255, 255); fill: rgb(238, 238, 238);"></path><path class="trade" transform="translate(744.7818472546173,236.5)" d="M -35.37713774459432,-20.425L0,-40.85L35.37713774459432,-20.425L35.37713774459432,20.425L0,40.85L-35.37713774459432,20.425L-35.37713774459432,-20.425Z" style="fill: rgb(165, 15, 21);"></path><text transform="translate(744.7818472546173,236.5)" x="0px" y="-2em" dy="0.35em" style="text-anchor: middle; font-size: 12px; stroke: black;">沪</text></g><g transform="translate(15,15)" class="prov"><path transform="translate(484.1082007155012,301)" d="M -37.239092362730865,-21.5L0,-43L37.239092362730865,-21.5L37.239092362730865,21.5L0,43L-37.239092362730865,21.5L-37.239092362730865,-21.5Z" style="stroke: rgb(255, 255, 255); fill: rgb(238, 238, 238);"></path><path class="trade" transform="translate(484.1082007155012,301)" d="M -17.502373410483504,-10.104999999999999L0,-20.209999999999997L17.502373410483504,-10.104999999999999L17.502373410483504,10.104999999999999L0,20.209999999999997L-17.502373410483504,10.104999999999999L-17.502373410483504,-10.104999999999999Z" style="fill: rgb(222, 45, 38);"></path><text transform="translate(484.1082007155012,301)" x="0px" y="-2em" dy="0.35em" style="text-anchor: middle; font-size: 12px; stroke: black;">苏</text></g><g transform="translate(15,15)" class="prov"><path transform="translate(521.3472930782322,365.5)" d="M -37.239092362730865,-21.5L0,-43L37.239092362730865,-21.5L37.239092362730865,21.5L0,43L-37.239092362730865,21.5L-37.239092362730865,-21.5Z" style="stroke: rgb(255, 255, 255); fill: rgb(238, 238, 238);"></path><path class="trade" transform="translate(521.3472930782322,365.5)" d="M -17.874764334110814,-10.32L0,-20.64L17.874764334110814,-10.32L17.874764334110814,10.32L0,20.64L-17.874764334110814,10.32L-17.874764334110814,-10.32Z" style="fill: rgb(222, 45, 38);"></path><text transform="translate(521.3472930782322,365.5)" x="0px" y="-2em" dy="0.35em" style="text-anchor: middle; font-size: 12px; stroke: black;">浙</text></g><g transform="translate(15,15)" class="prov"><path transform="translate(446.86910835277035,365.5)" d="M -37.239092362730865,-21.5L0,-43L37.239092362730865,-21.5L37.239092362730865,21.5L0,43L-37.239092362730865,21.5L-37.239092362730865,-21.5Z" style="stroke: rgb(255, 255, 255); fill: rgb(238, 238, 238);"></path><path class="trade" transform="translate(446.86910835277035,365.5)" d="M -4.096300159900395,-2.365L0,-4.73L4.096300159900395,-2.365L4.096300159900395,2.365L0,4.73L-4.096300159900395,2.365L-4.096300159900395,-2.365Z" style="fill: rgb(251, 106, 74);"></path><text transform="translate(446.86910835277035,365.5)" x="0px" y="-2em" dy="0.35em" style="text-anchor: middle; font-size: 12px; stroke: black;">皖</text></g><g transform="translate(15,15)" class="prov"><path transform="translate(484.1082007155012,430)" d="M -37.239092362730865,-21.5L0,-43L37.239092362730865,-21.5L37.239092362730865,21.5L0,43L-37.239092362730865,21.5L-37.239092362730865,-21.5Z" style="stroke: rgb(255, 255, 255); fill: rgb(238, 238, 238);"></path><path class="trade" transform="translate(484.1082007155012,430)" d="M -11.916509556073876,-6.88L0,-13.76L11.916509556073876,-6.88L11.916509556073876,6.88L0,13.76L-11.916509556073876,6.88L-11.916509556073876,-6.88Z" style="fill: rgb(222, 45, 38);"></path><text transform="translate(484.1082007155012,430)" x="0px" y="-2em" dy="0.35em" style="text-anchor: middle; font-size: 12px; stroke: black;">闽</text></g><g transform="translate(15,15)" class="prov"><path transform="translate(372.39092362730867,365.5)" d="M -37.239092362730865,-21.5L0,-43L37.239092362730865,-21.5L37.239092362730865,21.5L0,43L-37.239092362730865,21.5L-37.239092362730865,-21.5Z" style="stroke: rgb(255, 255, 255); fill: rgb(238, 238, 238);"></path><path class="trade" transform="translate(372.39092362730867,365.5)" d="M -4.841082007155013,-2.795L0,-5.59L4.841082007155013,-2.795L4.841082007155013,2.795L0,5.59L-4.841082007155013,2.795L-4.841082007155013,-2.795Z" style="fill: rgb(251, 106, 74);"></path><text transform="translate(372.39092362730867,365.5)" x="0px" y="-2em" dy="0.35em" style="text-anchor: middle; font-size: 12px; stroke: black;">赣</text></g><g transform="translate(15,15)" class="prov"><path transform="translate(521.3472930782322,236.5)" d="M -37.239092362730865,-21.5L0,-43L37.239092362730865,-21.5L37.239092362730865,21.5L0,43L-37.239092362730865,21.5L-37.239092362730865,-21.5Z" style="stroke: rgb(255, 255, 255); fill: rgb(238, 238, 238);"></path><path class="trade" transform="translate(521.3472930782322,236.5)" d="M -10.054554937937334,-5.805000000000001L0,-11.610000000000001L10.054554937937334,-5.805000000000001L10.054554937937334,5.805000000000001L0,11.610000000000001L-10.054554937937334,5.805000000000001L-10.054554937937334,-5.805000000000001Z" style="fill: rgb(251, 106, 74);"></path><text transform="translate(521.3472930782322,236.5)" x="0px" y="-2em" dy="0.35em" style="text-anchor: middle; font-size: 12px; stroke: black;">鲁</text></g><g transform="translate(15,15)" class="prov"><path transform="translate(409.6300159900395,301)" d="M -37.239092362730865,-21.5L0,-43L37.239092362730865,-21.5L37.239092362730865,21.5L0,43L-37.239092362730865,21.5L-37.239092362730865,-21.5Z" style="stroke: rgb(255, 255, 255); fill: rgb(238, 238, 238);"></path><path class="trade" transform="translate(409.6300159900395,301)" d="M -4.468691083527704,-2.58L0,-5.16L4.468691083527704,-2.58L4.468691083527704,2.58L0,5.16L-4.468691083527704,2.58L-4.468691083527704,-2.58Z" style="fill: rgb(251, 106, 74);"></path><text transform="translate(409.6300159900395,301)" x="0px" y="-2em" dy="0.35em" style="text-anchor: middle; font-size: 12px; stroke: black;">豫</text></g><g transform="translate(15,15)" class="prov"><path transform="translate(335.15183126457777,301)" d="M -37.239092362730865,-21.5L0,-43L37.239092362730865,-21.5L37.239092362730865,21.5L0,43L-37.239092362730865,21.5L-37.239092362730865,-21.5Z" style="stroke: rgb(255, 255, 255); fill: rgb(238, 238, 238);"></path><path class="trade" transform="translate(335.15183126457777,301)" d="M -2.979127389018469,-1.72L0,-3.44L2.979127389018469,-1.72L2.979127389018469,1.72L0,3.44L-2.979127389018469,1.72L-2.979127389018469,-1.72Z" style="fill: rgb(252, 174, 145);"></path><text transform="translate(335.15183126457777,301)" x="0px" y="-2em" dy="0.35em" style="text-anchor: middle; font-size: 12px; stroke: black;">鄂</text></g><g transform="translate(15,15)" class="prov"><path transform="translate(297.9127389018469,365.5)" d="M -37.239092362730865,-21.5L0,-43L37.239092362730865,-21.5L37.239092362730865,21.5L0,43L-37.239092362730865,21.5L-37.239092362730865,-21.5Z" style="stroke: rgb(255, 255, 255); fill: rgb(238, 238, 238);"></path><path class="trade" transform="translate(297.9127389018469,365.5)" d="M -1.8619546181365432,-1.075L0,-2.15L1.8619546181365432,-1.075L1.8619546181365432,1.075L0,2.15L-1.8619546181365432,1.075L-1.8619546181365432,-1.075Z" style="fill: rgb(252, 174, 145);"></path><text transform="translate(297.9127389018469,365.5)" x="0px" y="-2em" dy="0.35em" style="text-anchor: middle; font-size: 12px; stroke: black;">湘</text></g><g transform="translate(15,15)" class="prov"><path transform="translate(409.6300159900395,430)" d="M -37.239092362730865,-21.5L0,-43L37.239092362730865,-21.5L37.239092362730865,21.5L0,43L-37.239092362730865,21.5L-37.239092362730865,-21.5Z" style="stroke: rgb(255, 255, 255); fill: rgb(238, 238, 238);"></path><path class="trade" transform="translate(409.6300159900395,430)" d="M -32.39801035557585,-18.705L0,-37.41L32.39801035557585,-18.705L32.39801035557585,18.705L0,37.41L-32.39801035557585,18.705L-32.39801035557585,-18.705Z" style="fill: rgb(165, 15, 21);"></path><text transform="translate(409.6300159900395,430)" x="0px" y="-2em" dy="0.35em" style="text-anchor: middle; font-size: 12px; stroke: black;">粤</text></g><g transform="translate(15,15)" class="prov"><path transform="translate(335.15183126457777,430)" d="M -37.239092362730865,-21.5L0,-43L37.239092362730865,-21.5L37.239092362730865,21.5L0,43L-37.239092362730865,21.5L-37.239092362730865,-21.5Z" style="stroke: rgb(255, 255, 255); fill: rgb(238, 238, 238);"></path><path class="trade" transform="translate(335.15183126457777,430)" d="M -5.958254778036938,-3.44L0,-6.88L5.958254778036938,-3.44L5.958254778036938,3.44L0,6.88L-5.958254778036938,3.44L-5.958254778036938,-3.44Z" style="fill: rgb(251, 106, 74);"></path><text transform="translate(335.15183126457777,430)" x="0px" y="-2em" dy="0.35em" style="text-anchor: middle; font-size: 12px; stroke: black;">桂</text></g><g transform="translate(15,15)" class="prov"><path transform="translate(446.86910835277035,494.5)" d="M -37.239092362730865,-21.5L0,-43L37.239092362730865,-21.5L37.239092362730865,21.5L0,43L-37.239092362730865,21.5L-37.239092362730865,-21.5Z" style="stroke: rgb(255, 255, 255); fill: rgb(238, 238, 238);"></path><path class="trade" transform="translate(446.86910835277035,494.5)" d="M -7.447818472546173,-4.3L0,-8.6L7.447818472546173,-4.3L7.447818472546173,4.3L0,8.6L-7.447818472546173,4.3L-7.447818472546173,-4.3Z" style="fill: rgb(251, 106, 74);"></path><text transform="translate(446.86910835277035,494.5)" x="0px" y="-2em" dy="0.35em" style="text-anchor: middle; font-size: 12px; stroke: black;">琼</text></g><g transform="translate(15,15)" class="prov"><path transform="translate(707.5427548918864,301)" d="M -37.239092362730865,-21.5L0,-43L37.239092362730865,-21.5L37.239092362730865,21.5L0,43L-37.239092362730865,21.5L-37.239092362730865,-21.5Z" style="stroke: rgb(255, 255, 255); fill: rgb(238, 238, 238);"></path><path class="trade" transform="translate(707.5427548918864,301)" d="M -7.0754275489188645,-4.085L0,-8.17L7.0754275489188645,-4.085L7.0754275489188645,4.085L0,8.17L-7.0754275489188645,4.085L-7.0754275489188645,-4.085Z" style="fill: rgb(251, 106, 74);"></path><text transform="translate(707.5427548918864,301)" x="0px" y="-2em" dy="0.35em" style="text-anchor: middle; font-size: 12px; stroke: black;">渝</text></g><g transform="translate(15,15)" class="prov"><path transform="translate(260.673646539116,301)" d="M -37.239092362730865,-21.5L0,-43L37.239092362730865,-21.5L37.239092362730865,21.5L0,43L-37.239092362730865,21.5L-37.239092362730865,-21.5Z" style="stroke: rgb(255, 255, 255); fill: rgb(238, 238, 238);"></path><path class="trade" transform="translate(260.673646539116,301)" d="M -3.7239092362730863,-2.15L0,-4.3L3.7239092362730863,-2.15L3.7239092362730863,2.15L0,4.3L-3.7239092362730863,2.15L-3.7239092362730863,-2.15Z" style="fill: rgb(251, 106, 74);"></path><text transform="translate(260.673646539116,301)" x="0px" y="-2em" dy="0.35em" style="text-anchor: middle; font-size: 12px; stroke: black;">川</text></g><g transform="translate(15,15)" class="prov"><path transform="translate(223.43455417638518,365.5)" d="M -37.239092362730865,-21.5L0,-43L37.239092362730865,-21.5L37.239092362730865,21.5L0,43L-37.239092362730865,21.5L-37.239092362730865,-21.5Z" style="stroke: rgb(255, 255, 255); fill: rgb(238, 238, 238);"></path><path class="trade" transform="translate(223.43455417638518,365.5)" d="M -1.117172770881926,-0.645L0,-1.29L1.117172770881926,-0.645L1.117172770881926,0.645L0,1.29L-1.117172770881926,0.645L-1.117172770881926,-0.645Z" style="fill: rgb(252, 174, 145);"></path><text transform="translate(223.43455417638518,365.5)" x="0px" y="-2em" dy="0.35em" style="text-anchor: middle; font-size: 12px; stroke: black;">贵</text></g><g transform="translate(15,15)" class="prov"><path transform="translate(260.673646539116,430)" d="M -37.239092362730865,-21.5L0,-43L37.239092362730865,-21.5L37.239092362730865,21.5L0,43L-37.239092362730865,21.5L-37.239092362730865,-21.5Z" style="stroke: rgb(255, 255, 255); fill: rgb(238, 238, 238);"></path><path class="trade" transform="translate(260.673646539116,430)" d="M -2.979127389018469,-1.72L0,-3.44L2.979127389018469,-1.72L2.979127389018469,1.72L0,3.44L-2.979127389018469,1.72L-2.979127389018469,-1.72Z" style="fill: rgb(252, 174, 145);"></path><text transform="translate(260.673646539116,430)" x="0px" y="-2em" dy="0.35em" style="text-anchor: middle; font-size: 12px; stroke: black;">滇</text></g><g transform="translate(15,15)" class="prov"><path transform="translate(111.71727708819259,301)" d="M -37.239092362730865,-21.5L0,-43L37.239092362730865,-21.5L37.239092362730865,21.5L0,43L-37.239092362730865,21.5L-37.239092362730865,-21.5Z" style="stroke: rgb(255, 255, 255); fill: rgb(238, 238, 238);"></path><path class="trade" transform="translate(111.71727708819259,301)" d="M -1.117172770881926,-0.645L0,-1.29L1.117172770881926,-0.645L1.117172770881926,0.645L0,1.29L-1.117172770881926,0.645L-1.117172770881926,-0.645Z" style="fill: rgb(252, 174, 145);"></path><text transform="translate(111.71727708819259,301)" x="0px" y="-2em" dy="0.35em" style="text-anchor: middle; font-size: 12px; stroke: black;">藏</text></g><g transform="translate(15,15)" class="prov"><path transform="translate(297.9127389018469,236.5)" d="M -37.239092362730865,-21.5L0,-43L37.239092362730865,-21.5L37.239092362730865,21.5L0,43L-37.239092362730865,21.5L-37.239092362730865,-21.5Z" style="stroke: rgb(255, 255, 255); fill: rgb(238, 238, 238);"></path><path class="trade" transform="translate(297.9127389018469,236.5)" d="M -3.7239092362730863,-2.15L0,-4.3L3.7239092362730863,-2.15L3.7239092362730863,2.15L0,4.3L-3.7239092362730863,2.15L-3.7239092362730863,-2.15Z" style="fill: rgb(251, 106, 74);"></path><text transform="translate(297.9127389018469,236.5)" x="0px" y="-2em" dy="0.35em" style="text-anchor: middle; font-size: 12px; stroke: black;">陕</text></g><g transform="translate(15,15)" class="prov"><path transform="translate(148.95636945092346,236.5)" d="M -37.239092362730865,-21.5L0,-43L37.239092362730865,-21.5L37.239092362730865,21.5L0,43L-37.239092362730865,21.5L-37.239092362730865,-21.5Z" style="stroke: rgb(255, 255, 255); fill: rgb(238, 238, 238);"></path><path class="trade" transform="translate(148.95636945092346,236.5)" d="M -1.4895636945092345,-0.86L0,-1.72L1.4895636945092345,-0.86L1.4895636945092345,0.86L0,1.72L-1.4895636945092345,0.86L-1.4895636945092345,-0.86Z" style="fill: rgb(252, 174, 145);"></path><text transform="translate(148.95636945092346,236.5)" x="0px" y="-2em" dy="0.35em" style="text-anchor: middle; font-size: 12px; stroke: black;">甘</text></g><g transform="translate(15,15)" class="prov"><path transform="translate(186.19546181365433,301)" d="M -37.239092362730865,-21.5L0,-43L37.239092362730865,-21.5L37.239092362730865,21.5L0,43L-37.239092362730865,21.5L-37.239092362730865,-21.5Z" style="stroke: rgb(255, 255, 255); fill: rgb(238, 238, 238);"></path><path class="trade" transform="translate(186.19546181365433,301)" d="M -0.37239092362730863,-0.215L0,-0.43L0.37239092362730863,-0.215L0.37239092362730863,0.215L0,0.43L-0.37239092362730863,0.215L-0.37239092362730863,-0.215Z" style="fill: rgb(252, 174, 145);"></path><text transform="translate(186.19546181365433,301)" x="0px" y="-2em" dy="0.35em" style="text-anchor: middle; font-size: 12px; stroke: black;">青</text></g><g transform="translate(15,15)" class="prov"><path transform="translate(223.43455417638518,236.5)" d="M -37.239092362730865,-21.5L0,-43L37.239092362730865,-21.5L37.239092362730865,21.5L0,43L-37.239092362730865,21.5L-37.239092362730865,-21.5Z" style="stroke: rgb(255, 255, 255); fill: rgb(238, 238, 238);"></path><path class="trade" transform="translate(223.43455417638518,236.5)" d="M -2.234345541763852,-1.29L0,-2.58L2.234345541763852,-1.29L2.234345541763852,1.29L0,2.58L-2.234345541763852,1.29L-2.234345541763852,-1.29Z" style="fill: rgb(252, 174, 145);"></path><text transform="translate(223.43455417638518,236.5)" x="0px" y="-2em" dy="0.35em" style="text-anchor: middle; font-size: 12px; stroke: black;">宁</text></g><g transform="translate(15,15)" class="prov"><path transform="translate(74.47818472546173,236.5)" d="M -37.239092362730865,-21.5L0,-43L37.239092362730865,-21.5L37.239092362730865,21.5L0,43L-37.239092362730865,21.5L-37.239092362730865,-21.5Z" style="stroke: rgb(255, 255, 255); fill: rgb(238, 238, 238);"></path><path class="trade" transform="translate(74.47818472546173,236.5)" d="M -6.330645701664247,-3.6550000000000002L0,-7.3100000000000005L6.330645701664247,-3.6550000000000002L6.330645701664247,3.6550000000000002L0,7.3100000000000005L-6.330645701664247,3.6550000000000002L-6.330645701664247,-3.6550000000000002Z" style="fill: rgb(251, 106, 74);"></path><text transform="translate(74.47818472546173,236.5)" x="0px" y="-2em" dy="0.35em" style="text-anchor: middle; font-size: 12px; stroke: black;">新</text></g>
</svg>
